<svg width="161" height="13" viewBox="0 0 161 13" fill="none" xmlns="http://www.w3.org/2000/svg">
<path d="M0.851562 12H3.375V4.95312H3.4375L6.19531 12H7.83594L10.5938 4.95312H10.6562V12H13.1797V0.726562H9.86719L7.03906 8.09375H6.99219L4.16406 0.726562H0.851562V12ZM23.3328 12.2031C26.7703 12.2031 28.9031 9.96094 28.9031 6.36719V6.35156C28.9031 2.76562 26.7625 0.523438 23.3328 0.523438C19.9266 0.523438 17.7703 2.76562 17.7703 6.35156V6.36719C17.7703 9.96094 19.9109 12.2031 23.3328 12.2031ZM23.3328 9.82812C21.7234 9.82812 20.6922 8.50781 20.6922 6.36719V6.35156C20.6922 4.21094 21.7313 2.89844 23.3328 2.89844C24.95 2.89844 25.9891 4.21875 25.9891 6.35156V6.36719C25.9891 8.48438 24.9734 9.82812 23.3328 9.82812ZM36.0563 12H39.7125L43.2828 0.726562H40.0719L37.9156 9.20312H37.8609L35.6969 0.726562H32.4859L36.0563 12ZM47.5609 12H55.2875V9.69531H50.4281V7.41406H54.9984V5.25781H50.4281V3.03125H55.2875V0.726562H47.5609V12ZM60.1047 12H62.6281V4.95312H62.6906L65.4484 12H67.0891L69.8469 4.95312H69.9094V12H72.4328V0.726562H69.1203L66.2922 8.09375H66.2453L63.4172 0.726562H60.1047V12ZM77.3359 12H85.0625V9.69531H80.2031V7.41406H84.7734V5.25781H80.2031V3.03125H85.0625V0.726562H77.3359V12ZM89.8797 12H92.7391V5.42188H92.7937L97.325 12H99.7312V0.726562H96.8719V7.23438H96.8172L92.3094 0.726562H89.8797V12ZM107.259 12H110.119V3.03125H113.228V0.726562H104.15V3.03125H107.259V12ZM124.245 12H127.902C131.277 12 133.245 9.92969 133.245 6.36719V6.35156C133.245 2.78906 131.269 0.726562 127.902 0.726562H124.245V12ZM125.308 11.0312V1.69531H127.839C130.613 1.69531 132.159 3.35938 132.159 6.35938V6.375C132.159 9.35938 130.613 11.0312 127.839 11.0312H125.308ZM136.867 12H138L139.258 8.54688H144.031L145.289 12H146.414L142.172 0.726562H141.117L136.867 12ZM141.633 2.03125H141.656L143.695 7.625H139.594L141.633 2.03125ZM155.161 12.1797C158.309 12.1797 160.278 9.9375 160.278 6.36719V6.35156C160.278 2.79688 158.302 0.546875 155.161 0.546875C152.02 0.546875 150.036 2.79688 150.036 6.35156V6.36719C150.036 9.9375 152.012 12.1797 155.161 12.1797ZM155.161 11.1875C152.684 11.1875 151.122 9.32031 151.122 6.36719V6.35156C151.122 3.39844 152.692 1.53906 155.161 1.53906C157.622 1.53906 159.184 3.40625 159.184 6.35156V6.36719C159.184 9.29688 157.645 11.1875 155.161 11.1875Z" fill="black"/>
</svg>
