<svg width="80" height="58" viewBox="0 0 80 58" fill="none" xmlns="http://www.w3.org/2000/svg">
<path d="M68.9102 1.74231C68.8063 1.74231 68.7283 1.74231 68.6244 1.74231H68.5984C68.5464 1.74231 68.4945 1.74231 68.4425 1.74231C68.3126 1.74231 68.2087 1.74231 68.0787 1.74231C68.0268 1.74231 67.9748 1.74231 67.9228 1.74231C67.7929 1.74231 67.689 1.76832 67.559 1.76832C67.5071 1.76832 67.4551 1.76832 67.4031 1.79432C67.2732 1.82033 67.1693 1.82033 67.0394 1.84634C66.9874 1.84634 66.9354 1.87234 66.8835 1.87234C66.7535 1.89835 66.6496 1.92435 66.5197 1.95036C66.4677 1.95036 66.4157 1.97636 66.3898 1.97636C66.2598 2.00237 66.1299 2.02837 66 2.05438C65.974 2.05438 65.922 2.08038 65.8961 2.08038C65.7661 2.10639 65.6362 2.1584 65.4803 2.1844C65.4543 2.1844 65.4283 2.21041 65.4024 2.21041C65.2464 2.26242 65.1165 2.31443 64.9606 2.36644H64.9346C63.7134 2.80853 62.5441 3.48467 61.5307 4.42086L44.3811 19.816L38.8464 14.745L34.0394 10.2981L27.6472 4.42086C26.0622 2.99057 24.1653 2.13239 22.1905 1.84634C22.1646 1.84634 22.1126 1.84634 22.0866 1.82033C21.9827 1.82033 21.8787 1.82033 21.7748 1.79432C21.7228 1.79432 21.6449 1.76832 21.5929 1.76832C21.489 1.76832 21.411 1.74231 21.3071 1.74231C21.2291 1.74231 21.1512 1.74231 21.0732 1.71631C20.9953 1.71631 20.8913 1.71631 20.8134 1.71631C20.7354 1.71631 20.6835 1.71631 20.6055 1.71631H20.5795C20.4756 1.71631 20.3716 1.71631 20.2677 1.71631C20.1898 1.71631 20.1118 1.71631 20.0598 1.71631C20.0079 1.71631 19.9559 1.71631 19.9039 1.71631C19.0984 1.76832 18.3449 1.92435 17.5913 2.13239C17.5653 2.13239 17.5653 2.13239 17.5394 2.13239C17.4094 2.1844 17.2795 2.21041 17.1496 2.26242C17.1236 2.26242 17.0716 2.28843 17.0457 2.28843C16.9417 2.34044 16.8378 2.36644 16.7338 2.41845C16.6819 2.44446 16.6299 2.47046 16.5779 2.49647C16.5 2.52247 16.396 2.57448 16.3181 2.60049C16.2401 2.6265 16.1622 2.67851 16.0842 2.70451C16.0323 2.73052 15.9543 2.75652 15.9023 2.80853C15.7984 2.86054 15.7205 2.91255 15.6165 2.96456C15.5646 2.99057 15.5386 3.01658 15.4866 3.04258C15.3827 3.09459 15.2787 3.17261 15.1488 3.22462C15.1228 3.25062 15.0968 3.25062 15.0709 3.27663C14.9409 3.35465 14.837 3.43266 14.7071 3.51068C14.7071 3.51068 14.7071 3.51068 14.6811 3.51068C14.2134 3.82274 13.7457 4.21282 13.3299 4.6029C13.252 4.65491 13.2 4.73293 13.122 4.78494C13.096 4.81094 13.0441 4.86295 13.0181 4.91497C12.9401 4.99298 12.8362 5.097 12.7583 5.17502C12.7583 5.17502 12.7583 5.17502 12.7323 5.20102C12.7063 5.22703 12.6803 5.27904 12.6543 5.30505C12.5764 5.40907 12.4984 5.48708 12.4205 5.5911C12.3685 5.64311 12.3425 5.69513 12.2905 5.74714C12.2126 5.82515 12.1606 5.90317 12.0827 6.00719C12.0307 6.0592 12.0047 6.13722 11.9527 6.18923C11.9008 6.26724 11.8488 6.34526 11.7968 6.42327C11.7449 6.50129 11.6929 6.5533 11.6669 6.63132C11.6149 6.70933 11.563 6.78735 11.537 6.86537C11.485 6.94338 11.459 7.0214 11.4071 7.09941C11.3551 7.17743 11.3291 7.25545 11.2772 7.30746C11.2252 7.38547 11.1992 7.46349 11.1472 7.5415C11.1212 7.61952 11.0693 7.69754 11.0433 7.77555C11.0173 7.85357 10.9653 7.93158 10.9394 8.0096C10.9134 8.08762 10.8614 8.16563 10.8354 8.24365C10.8094 8.32166 10.7835 8.39968 10.7315 8.4777C10.7055 8.55571 10.6795 8.65973 10.6275 8.73775C10.6016 8.81577 10.5756 8.89378 10.5496 8.9718C10.5236 9.04981 10.4976 9.15384 10.4716 9.23185C10.4457 9.30987 10.4197 9.38788 10.4197 9.43989C10.3937 9.54392 10.3677 9.62193 10.3417 9.72595C10.3157 9.80397 10.3157 9.88199 10.2897 9.934C10.2638 10.038 10.2378 10.116 10.2378 10.2201C10.2118 10.2981 10.2118 10.3761 10.1858 10.4541C10.1598 10.5581 10.1598 10.6361 10.1338 10.7402C10.1338 10.8182 10.1079 10.9222 10.1079 11.0002C10.1079 11.0782 10.0819 11.1823 10.0819 11.2603C10.0819 11.3643 10.0559 11.4423 10.0559 11.5463C10.0559 11.6243 10.0559 11.7024 10.0299 11.7804C10.0299 11.8844 10.0299 11.9884 10.0299 12.0924C10.0299 12.1445 10.0299 12.1965 10.0299 12.2745V57.6798H31.1551V35.9653L37.1315 41.3224C40.2236 44.4171 44.8488 45.2232 48.7205 43.5849C48.7464 43.5849 48.7464 43.5849 48.7724 43.5589C48.9024 43.5069 49.0323 43.4549 49.1622 43.3769C49.1882 43.3509 49.2401 43.3509 49.2661 43.3249C49.3701 43.2728 49.474 43.2208 49.5779 43.1688C49.6299 43.1428 49.7079 43.0908 49.7598 43.0648C49.8378 43.0128 49.9157 42.9868 49.9937 42.9348C50.0716 42.8828 50.1756 42.8307 50.2535 42.7787C50.3055 42.7527 50.3575 42.7267 50.4094 42.6747C50.5394 42.5967 50.6433 42.5187 50.7732 42.4147C50.7992 42.4147 50.7992 42.3887 50.8252 42.3887C51.163 42.1546 51.4748 41.8946 51.7866 41.6085L52.0984 41.3224L58.0748 35.9653V57.6798H79.2V12.3005C79.174 6.57931 74.6008 1.89835 68.9102 1.74231Z" fill="url(#paint0_linear_243_4281)"/>
<path d="M31.1551 57.7059V35.9915L37.1315 41.3486C40.2236 44.4432 44.8488 45.2494 48.7205 43.6111C48.7464 43.6111 48.7464 43.6111 48.7724 43.585C48.9024 43.533 49.0323 43.481 49.1622 43.403C49.1882 43.377 49.2401 43.377 49.2661 43.351C49.3701 43.299 49.474 43.247 49.5779 43.195C49.6299 43.169 49.7079 43.117 49.7598 43.0909C49.8378 43.0389 49.9157 43.0129 49.9937 42.9609C50.0716 42.9089 50.1756 42.8569 50.2535 42.8049C50.3055 42.7789 50.3575 42.7529 50.4094 42.7009C50.5394 42.6228 50.6433 42.5448 50.7732 42.4408C50.7992 42.4408 50.7992 42.4148 50.8252 42.4148C51.163 42.1808 51.4748 41.9207 51.7866 41.6346L52.0984 41.3486L58.0748 35.9915V57.7059H79.2V37.2397C74.4189 38.696 70.4953 23.2229 61.6606 26.4995C55.2165 28.866 49.6299 28.0859 45.4205 24.4711C41.211 20.8304 39.7559 23.1709 35.9882 24.029C32.2205 24.8872 30.9212 15.1352 26.2701 16.6175C23.5157 17.5017 23.8016 23.3009 28.1669 23.873C32.5323 24.4451 35.8583 30.2703 31.6488 31.4146C27.4394 32.5588 23.1 27.3577 19.748 31.4146C16.3701 35.4974 23.4898 47.6939 18.7086 48.9942C13.9275 50.2944 10.0299 39.8403 10.0299 39.8403V57.7059H31.1551Z" fill="url(#paint1_linear_243_4281)"/>
<path opacity="0.5" d="M26.2441 16.6174C24.2173 17.2675 23.8275 20.5962 25.5165 22.5206C25.4645 22.3906 24.0614 19.3219 25.8803 17.6836C26.8677 16.7994 28.1669 16.9295 29.1543 17.2415C28.3228 16.5654 27.3874 16.2533 26.2441 16.6174Z" fill="white"/>
<g opacity="0.4">
<path opacity="0.4" d="M20.5795 31.3104C21.7488 30.3482 23.7236 30.2181 25.5165 30.4002C23.4118 29.698 21.437 29.334 19.696 31.4144C18.2929 33.1307 18.7346 36.2774 19.3582 39.45C19.1244 38.0457 18.3968 33.1307 20.5795 31.3104Z" fill="white"/>
</g>
<path d="M31.1551 44.0532C31.1551 44.0532 28.9984 48.7082 25.1008 48.1101C21.1772 47.5379 16.7339 42.987 10.0559 48.1621V57.68H31.1811V44.0532H31.1551Z" fill="url(#paint2_linear_243_4281)"/>
<path opacity="0.5" d="M25.0748 48.1098C21.1512 47.5377 16.7079 42.9867 10.0299 48.1618C10.0299 48.1618 14.6031 45.9253 17.7212 46.6535C20.8394 47.3816 26.6338 50.5803 29.648 46.2114C28.6346 47.3556 27.0756 48.4218 25.0748 48.1098Z" fill="white"/>
<path opacity="0.85" d="M38.7425 10.428C37.3913 10.5581 36.1701 11.3122 35.3906 12.4304C34.715 13.3926 34.1953 14.7969 34.8449 16.4873C36.0921 19.7379 42.978 18.9578 42.2244 13.7567C41.7827 10.7921 40.1197 10.298 38.7425 10.428Z" fill="url(#paint3_linear_243_4281)"/>
<path opacity="0.5" d="M36.0401 12.9759C36.8716 11.7537 38.1189 11.2856 39.574 11.1555C40.0937 11.1035 40.9252 11.3896 41.4449 11.5976C40.7173 10.5574 39.652 10.3494 38.7165 10.4274C37.3653 10.5574 36.1441 11.3116 35.3646 12.4298C34.689 13.392 34.1693 14.7963 34.8189 16.4866C34.9488 16.8247 35.1567 17.1368 35.4165 17.3968C35.0527 15.8105 35.3905 13.9121 36.0401 12.9759Z" fill="white"/>
<path opacity="0.85" d="M2.7795 15.5773C1.87005 15.6553 1.06453 16.1495 0.54485 16.9036C0.129101 17.5277 -0.234678 18.4639 0.207054 19.5822C1.03855 21.7406 5.61178 21.2205 5.11808 17.7618C4.80627 15.8114 3.71493 15.4993 2.7795 15.5773Z" fill="url(#paint4_linear_243_4281)"/>
<path opacity="0.5" d="M0.986581 17.2677C1.55823 16.4615 2.36375 16.1495 3.35115 16.0714C3.68894 16.0454 4.2606 16.2275 4.59839 16.3575C4.10469 15.6554 3.40312 15.5253 2.77949 15.5773C1.87005 15.6554 1.06453 16.1495 0.544849 16.9036C0.129101 17.5277 -0.234678 18.4639 0.207054 19.5822C0.285007 19.8162 0.440912 20.0243 0.596818 20.1803C0.336975 19.1661 0.570834 17.8918 0.986581 17.2677Z" fill="white"/>
<path opacity="0.85" d="M5.43074 31.0236C4.88507 31.0756 4.39136 31.3876 4.05357 31.8297C3.76774 32.2198 3.55987 32.7919 3.81971 33.494C4.3394 34.8203 7.1457 34.5082 6.83389 32.3758C6.67798 31.1796 6.00239 30.9715 5.43074 31.0236Z" fill="#FFDB08"/>
<path opacity="0.5" d="M4.33941 32.0645C4.67721 31.5704 5.19689 31.3624 5.79453 31.3104C6.0024 31.2844 6.3402 31.4144 6.57406 31.4924C6.28823 31.0763 5.8465 30.9723 5.45673 31.0243C4.91107 31.0763 4.41736 31.3884 4.07957 31.8305C3.79374 32.2206 3.58587 32.7927 3.84571 33.4948C3.89768 33.6249 3.97563 33.7549 4.07957 33.8589C3.92366 33.2348 4.07957 32.4546 4.33941 32.0645Z" fill="white"/>
<path opacity="0.85" d="M75.0425 24.7311C74.7047 24.315 74.211 24.055 73.6653 24.029C73.1976 24.003 72.6259 24.133 72.2102 24.7051C71.4047 25.8234 73.1196 27.9298 74.7047 26.5775C75.5621 25.8233 75.3802 25.1472 75.0425 24.7311Z" fill="url(#paint5_linear_243_4281)"/>
<path d="M63.7654 32.1427C58.6465 28.4759 56.8796 18.8019 50.5134 21.2985C44.1733 23.795 47.1355 35.1333 43.9394 38.1239C40.7433 41.1145 34.5591 39.0081 34.5591 39.0081L37.1315 41.3226C40.2236 44.4172 44.8488 45.2234 48.7205 43.585C48.7465 43.585 48.7465 43.585 48.7725 43.559C48.9024 43.507 49.0323 43.455 49.1622 43.377C49.1882 43.351 49.2402 43.351 49.2662 43.325C49.3701 43.273 49.474 43.221 49.578 43.1689C49.63 43.1429 49.7079 43.0909 49.7599 43.0649C49.8378 43.0129 49.9158 42.9869 49.9937 42.9349C50.0717 42.8829 50.1756 42.8309 50.2536 42.7789C50.3055 42.7529 50.3575 42.7269 50.4095 42.6748C50.5394 42.5968 50.6433 42.5188 50.7733 42.4148C50.7992 42.4148 50.7992 42.3888 50.8252 42.3888C51.163 42.1547 51.4748 41.8947 51.7866 41.6086L52.0985 41.3226L58.0748 35.9655V57.6799H79.2V33.2089C73.3276 37.3698 68.8843 35.8354 63.7654 32.1427Z" fill="url(#paint6_linear_243_4281)"/>
<g opacity="0.5">
<path opacity="0.5" d="M50.7213 21.8964C54.489 20.3621 57.6071 24.419 58.1788 25.2251C56.126 22.2605 54.0213 19.946 50.5394 21.3243C46.4339 22.9367 46.226 28.2938 45.7323 32.6627C46.252 29.308 47.7071 23.1187 50.7213 21.8964Z" fill="white"/>
</g>
<path d="M58.0488 52.4788C58.0488 52.4788 62.5961 55.0014 65.0126 52.4788C67.4291 49.9563 64.7268 42.9869 69.0662 40.6724C73.4055 38.3579 76.3158 43.481 79.174 42.9089V57.7059H58.0488V52.4788Z" fill="url(#paint7_linear_243_4281)"/>
<path opacity="0.4" d="M69.1181 41.6866C72.0024 39.7622 75.5103 41.6086 75.5363 41.6346C73.6914 40.5164 71.6386 39.3202 69.0662 40.6724C66.4418 42.0767 66.3898 45.1714 66.2339 47.9539C66.5717 45.7955 67.3772 42.8569 69.1181 41.6866Z" fill="white"/>
<path d="M34.0394 10.2981L27.6472 4.42086C26.0622 2.99057 24.1653 2.13239 22.1905 1.84634C22.1646 1.84634 22.1126 1.84634 22.0866 1.82033C21.9827 1.82033 21.8787 1.82033 21.7748 1.79432C21.7228 1.79432 21.6449 1.76832 21.5929 1.76832C21.489 1.76832 21.411 1.74231 21.3071 1.74231C21.2291 1.74231 21.1512 1.74231 21.0732 1.71631C20.9953 1.71631 20.8913 1.71631 20.8134 1.71631C20.7354 1.71631 20.6835 1.71631 20.6055 1.71631H20.5795C20.4756 1.71631 20.3716 1.71631 20.2677 1.71631C20.1897 1.71631 20.1118 1.71631 20.0598 1.71631C20.0079 1.71631 19.9559 1.71631 19.9039 1.71631C19.0984 1.76832 18.3449 1.92435 17.5913 2.13239C17.5653 2.13239 17.5653 2.13239 17.5394 2.13239C17.4094 2.1844 17.2795 2.21041 17.1496 2.26242C17.1236 2.26242 17.0716 2.28843 17.0457 2.28843C16.9417 2.34044 16.8378 2.36644 16.7338 2.41845C16.6819 2.44446 16.6299 2.47046 16.5779 2.49647C16.5 2.52247 16.396 2.57448 16.3181 2.60049C16.2401 2.6265 16.1622 2.67851 16.0842 2.70451C16.0323 2.73052 15.9543 2.75652 15.9023 2.80853C15.7984 2.86054 15.7205 2.91255 15.6165 2.96456C15.5646 2.99057 15.5386 3.01658 15.4866 3.04258C15.3827 3.09459 15.2787 3.17261 15.1488 3.22462C15.1228 3.25062 15.0968 3.25062 15.0709 3.27663C14.9409 3.35464 14.837 3.43266 14.7071 3.51068C14.7071 3.51068 14.7071 3.51068 14.6811 3.51068C14.2134 3.82274 13.7457 4.21282 13.3299 4.6029C13.252 4.65491 13.2 4.73293 13.122 4.78494C13.096 4.81094 13.0441 4.86295 13.0181 4.91496C12.9401 4.99298 12.8362 5.097 12.7583 5.17502C12.7583 5.17502 12.7583 5.17502 12.7323 5.20102C12.7063 5.22703 12.6803 5.27904 12.6543 5.30504C12.5764 5.40907 12.4984 5.48708 12.4205 5.5911C12.3685 5.64311 12.3425 5.69513 12.2905 5.74714C12.2126 5.82515 12.1606 5.90317 12.0827 6.00719C12.0307 6.0592 12.0047 6.13722 11.9527 6.18923C11.9008 6.26724 11.8488 6.34526 11.7968 6.42327C11.7449 6.50129 11.6929 6.5533 11.6669 6.63132C11.6149 6.70933 11.563 6.78735 11.537 6.86537C11.485 6.94338 11.459 7.0214 11.4071 7.09941C11.3551 7.17743 11.3291 7.25545 11.2772 7.30746C11.2252 7.38547 11.1992 7.46349 11.1472 7.5415C11.1212 7.61952 11.0693 7.69754 11.0433 7.77555C11.0173 7.85357 10.9653 7.93158 10.9394 8.0096C10.9134 8.08762 10.8614 8.16563 10.8354 8.24365C10.8094 8.32166 10.7835 8.39968 10.7315 8.4777C10.7055 8.55571 10.6795 8.65973 10.6275 8.73775C10.6016 8.81576 10.5756 8.89378 10.5496 8.9718C10.5236 9.04981 10.4976 9.15383 10.4716 9.23185C10.4457 9.30987 10.4197 9.38788 10.4197 9.43989C10.3937 9.54391 10.3677 9.62193 10.3417 9.72595C10.3157 9.80397 10.3157 9.88198 10.2897 9.934C10.2638 10.038 10.2378 10.116 10.2378 10.2201C10.2118 10.2981 10.2118 10.3761 10.1858 10.4541C10.1598 10.5581 10.1598 10.6361 10.1338 10.7402C10.1338 10.8182 10.1079 10.9222 10.1079 11.0002C10.1079 11.0782 10.0819 11.1823 10.0819 11.2603C10.0819 11.3643 10.0559 11.4423 10.0559 11.5463C10.0559 11.6243 10.0559 11.7024 10.0299 11.7804C10.0299 11.8844 10.0299 11.9884 10.0299 12.0924C10.0299 12.1444 10.0299 12.1965 10.0299 12.2745V26.4214L10.4716 13.1327C10.4716 13.0806 10.4716 13.0286 10.4716 12.9506C10.4716 12.8466 10.4716 12.7426 10.4716 12.6385C10.4716 12.5605 10.4716 12.4825 10.4976 12.4045C10.4976 12.3005 10.4976 12.2225 10.5236 12.1184C10.5236 12.0404 10.5496 11.9364 10.5496 11.8584C10.5496 11.7804 10.5756 11.6764 10.5756 11.5983C10.6016 11.4943 10.6016 11.4163 10.6275 11.3123C10.6535 11.2343 10.6535 11.1562 10.6795 11.0782C10.7055 10.9742 10.7315 10.8962 10.7315 10.7922C10.7575 10.7142 10.7575 10.6361 10.7835 10.5841C10.8094 10.4801 10.8354 10.4021 10.8614 10.2981C10.8874 10.2201 10.9134 10.142 10.9134 10.09C10.9394 10.012 10.9653 9.90799 10.9913 9.82997C11.0173 9.75196 11.0433 9.67394 11.0693 9.59593C11.0953 9.51791 11.1212 9.41389 11.1732 9.33587C11.1992 9.25786 11.2252 9.17984 11.2772 9.10182C11.3031 9.02381 11.3551 8.94579 11.3811 8.86778C11.4071 8.78976 11.459 8.71174 11.485 8.63373C11.511 8.55571 11.563 8.4777 11.589 8.39968C11.6409 8.32166 11.6669 8.24365 11.7189 8.16563C11.7709 8.08762 11.7968 8.0096 11.8488 7.95759C11.9008 7.87957 11.9268 7.80156 11.9787 7.72354C12.0307 7.64553 12.0827 7.56751 12.1086 7.48949C12.1606 7.41148 12.1866 7.35947 12.2386 7.28145C12.2905 7.20343 12.3425 7.12542 12.3945 7.0474C12.4464 6.99539 12.4724 6.91738 12.5244 6.86537C12.5764 6.78735 12.6543 6.68333 12.7323 6.60531C12.7842 6.5533 12.8102 6.50129 12.8622 6.44928C12.9401 6.34526 13.0181 6.26724 13.096 6.16322C13.122 6.13722 13.148 6.08521 13.174 6.0592C13.174 6.0592 13.174 6.0592 13.2 6.03319C13.2779 5.92917 13.3559 5.85116 13.4598 5.77314C13.4858 5.72113 13.5378 5.69513 13.5638 5.64311C13.6157 5.5911 13.6937 5.51309 13.7716 5.46108C14.1874 5.04499 14.6551 4.68092 15.1228 4.36885C15.1228 4.36885 15.1228 4.36885 15.1488 4.36885C15.2787 4.29084 15.3827 4.21282 15.5126 4.1348C15.5386 4.1088 15.5646 4.1088 15.5905 4.08279C15.6945 4.00478 15.7984 3.95277 15.9283 3.90076C15.9803 3.87475 16.0063 3.84875 16.0583 3.82274C16.1622 3.77073 16.2401 3.71872 16.3441 3.66671C16.396 3.6407 16.474 3.6147 16.526 3.56269C16.6039 3.53668 16.6819 3.48467 16.7598 3.45867C16.8378 3.43266 16.9417 3.38065 17.0197 3.35464C17.0716 3.32864 17.1236 3.30263 17.1756 3.27663C17.2795 3.22462 17.3835 3.19861 17.4874 3.1466C17.5134 3.1466 17.5653 3.1206 17.5913 3.1206C17.7212 3.06859 17.8512 3.04258 17.9811 2.99057C18.0071 2.99057 18.0071 2.99057 18.0331 2.99057C18.7606 2.78253 19.5401 2.6265 20.3457 2.57448C20.3976 2.57448 20.4496 2.57448 20.5016 2.57448C20.5795 2.57448 20.6575 2.57448 20.7094 2.57448C20.8134 2.57448 20.9173 2.57448 21.0212 2.57448H21.0472C21.1252 2.57448 21.1772 2.57448 21.2551 2.57448C21.3331 2.57448 21.437 2.57448 21.5149 2.57448C21.5929 2.57448 21.6709 2.57448 21.7488 2.60049C21.8527 2.60049 21.9307 2.60049 22.0346 2.6265C22.0866 2.6265 22.1646 2.6525 22.2165 2.6525C22.3205 2.6525 22.4244 2.67851 22.5283 2.67851C22.5543 2.67851 22.6063 2.67851 22.6323 2.70451C24.6071 2.99057 26.5039 3.84875 28.089 5.27904L34.0394 10.2981Z" fill="#F41D00"/>
<path d="M50.6953 14.1718L61.9725 5.30394C63.0118 4.39375 64.1552 3.69161 65.3764 3.24952H65.4024C65.5583 3.19751 65.6882 3.1455 65.8441 3.09349C65.8701 3.09349 65.8961 3.06748 65.9221 3.06748C66.052 3.01547 66.1819 2.98947 66.3378 2.96346C66.3638 2.96346 66.4158 2.93746 66.4418 2.93746C66.5717 2.91145 66.7016 2.88545 66.8315 2.85944C66.8835 2.85944 66.9095 2.83343 66.9615 2.83343C67.0914 2.80743 67.1953 2.78142 67.3252 2.75542C67.3772 2.75542 67.4292 2.72941 67.4811 2.72941C67.6111 2.70341 67.715 2.70341 67.8449 2.6774C67.8969 2.6774 67.9489 2.6514 68.0008 2.6514C68.1307 2.6514 68.2347 2.62539 68.3646 2.62539C68.4166 2.62539 68.4685 2.62539 68.5205 2.62539C68.6504 2.62539 68.7544 2.62539 68.8843 2.62539C68.9363 2.62539 68.9882 2.62539 69.0402 2.62539H69.0662C69.1701 2.62539 69.2481 2.62539 69.352 2.62539C73.1977 2.72941 76.5237 4.88786 78.2646 8.0345C76.6536 4.41976 73.0937 1.87124 68.9103 1.74121C68.8063 1.74121 68.7284 1.74121 68.6244 1.74121H68.5985C68.5465 1.74121 68.4945 1.74121 68.4426 1.74121C68.3126 1.74121 68.2087 1.74121 68.0788 1.74121C68.0268 1.74121 67.9748 1.74121 67.9229 1.74121C67.7929 1.74121 67.689 1.76722 67.5591 1.76722C67.5071 1.76722 67.4551 1.76722 67.4032 1.79322C67.2733 1.81923 67.1693 1.81923 67.0394 1.84523C66.9874 1.84523 66.9355 1.87124 66.8835 1.87124C66.7536 1.89724 66.6496 1.92325 66.5197 1.94925C66.4677 1.94925 66.4158 1.97526 66.3898 1.97526C66.2599 2.00126 66.13 2.02727 66 2.05327C65.974 2.05327 65.9221 2.07928 65.8961 2.07928C65.7662 2.10529 65.6363 2.1573 65.4803 2.1833C65.4544 2.1833 65.4284 2.20931 65.4024 2.20931C65.2465 2.26132 65.1166 2.31333 64.9607 2.36534H64.9347C63.7134 2.80743 62.5441 3.48357 61.5307 4.41976L50.6953 14.1718Z" fill="#FF3E00"/>
<defs>
<linearGradient id="paint0_linear_243_4281" x1="14.8814" y1="3.06903" x2="74.3719" y2="62.5113" gradientUnits="userSpaceOnUse">
<stop stop-color="#FF3C00"/>
<stop offset="0.1313" stop-color="#FF4301"/>
<stop offset="0.3274" stop-color="#FF5805"/>
<stop offset="0.5641" stop-color="#FF790B"/>
<stop offset="0.83" stop-color="#FFA714"/>
<stop offset="1" stop-color="#FFC81A"/>
</linearGradient>
<linearGradient id="paint1_linear_243_4281" x1="19.8406" y1="22.6853" x2="67.0414" y2="69.8478" gradientUnits="userSpaceOnUse">
<stop stop-color="#FF9F06"/>
<stop offset="1" stop-color="#FF9D00"/>
</linearGradient>
<linearGradient id="paint2_linear_243_4281" x1="13.9548" y1="44.2404" x2="29.2888" y2="59.5619" gradientUnits="userSpaceOnUse">
<stop stop-color="#FFD00D"/>
<stop offset="1" stop-color="#FFC81A" stop-opacity="0"/>
</linearGradient>
<linearGradient id="paint3_linear_243_4281" x1="35.8554" y1="11.846" x2="41.2151" y2="17.2014" gradientUnits="userSpaceOnUse">
<stop stop-color="#FFD00D"/>
<stop offset="1" stop-color="#FFC81A"/>
</linearGradient>
<linearGradient id="paint4_linear_243_4281" x1="0.86695" y1="16.519" x2="4.43039" y2="20.0796" gradientUnits="userSpaceOnUse">
<stop stop-color="#FFD00D"/>
<stop offset="1" stop-color="#FF9E06"/>
</linearGradient>
<linearGradient id="paint5_linear_243_4281" x1="73.9364" y1="24.0367" x2="73.2932" y2="26.9666" gradientUnits="userSpaceOnUse">
<stop stop-color="#FFD00D"/>
<stop offset="1" stop-color="#FFC81A"/>
</linearGradient>
<linearGradient id="paint6_linear_243_4281" x1="45.9599" y1="25.2129" x2="78.8266" y2="58.0531" gradientUnits="userSpaceOnUse">
<stop stop-color="#FFD00D"/>
<stop offset="1" stop-color="#FFC81A" stop-opacity="0"/>
</linearGradient>
<linearGradient id="paint7_linear_243_4281" x1="63.8962" y1="45.5723" x2="77.6079" y2="59.2728" gradientUnits="userSpaceOnUse">
<stop stop-color="#FFD60B"/>
<stop offset="1" stop-color="#FFC81A" stop-opacity="0"/>
</linearGradient>
</defs>
</svg>
